<svg id="a5f8c0d1-f097-4cf2-9513-ed5dda4a9161" data-name="TransparentBG" xmlns="http://www.w3.org/2000/svg" viewBox="0 0 570.34 570.28"><defs><style>.aa380250-153d-4345-a608-8db5bd3c0a5b{fill:#fff;}.f8b8d29d-0436-4441-a33a-6bdfe1b955c9{fill-rule:evenodd;}</style></defs><title>GWU_Sweden_TransBG</title><g id="a2acffcb-66cb-4000-98d6-092982c6e03a" data-name="Graphic objects (DO NOT TOUCH)"><circle class="aa380250-153d-4345-a608-8db5bd3c0a5b" cx="285.42" cy="287.22" r="276.42"/><path class="f8b8d29d-0436-4441-a33a-6bdfe1b955c9" d="M288.36,3.21C446,3,574.53,131.7,573.48,290.32c-1,156.57-129.06,284.3-287.36,283.16C129.61,572.36,1.9,444.29,3.16,285.92,4.41,129.86,131.6,3,288.36,3.21ZM268.9,521.41h0c0-6.51,0-13,0-19.52a4.9,4.9,0,0,0-2.34-4.58c-6.44-4.09-10.24-10.1-12.52-17.22a54.7,54.7,0,0,1-2.22-14.81,12.14,12.14,0,0,1,9.69-12.7c5.54-1.36,11.07-2.72,16.63-4a8.35,8.35,0,0,1,3.15-.12c6.15,1,12.31,2,18.43,3.15a40.87,40.87,0,0,1,8,2.11c2.82,1.16,3.12,4,.87,6.07a8.75,8.75,0,0,1-2.85,1.7,16.31,16.31,0,0,1-8.34.79c-5.22-.78-10.45-1.54-15.66-2.35a5.94,5.94,0,0,0-5.05,1.36c-3.35,2.81-6.79,5.52-10.17,8.28a6.64,6.64,0,0,0-1.32,1.38,3.18,3.18,0,0,0,3.55,4.89,7.57,7.57,0,0,0,1.73-.81,25.32,25.32,0,0,1,10.5-3.65,190.19,190.19,0,0,1,29.71-.79,68.51,68.51,0,0,1,9.6,1.54,10.06,10.06,0,0,1,8.17,7.26,18.93,18.93,0,0,1,.84,6c-.21,5.67-2.8,10.45-6.18,14.81a8.86,8.86,0,0,0-1.94,5.75c.05,10.88,0,21.76,0,32.64,0,.85-.05,1.7,0,2.55a3.28,3.28,0,0,0,4.1,3.29c.69-.13,1.36-.3,2-.43,8.36-1.69,16.8-3,25.05-5.11C460.2,511.76,539,417.65,546.79,306.62A258.73,258.73,0,0,0,208,42.44C112.34,73.81,40.93,159.84,31.3,264a254.21,254.21,0,0,0,4.19,76.36Q54,428.25,122.65,486.28c34.6,29.26,74.4,47.88,119,56.15,6.91,1.29,13.89,2.32,20.88,3,4.83.44,6.55-.54,6.44-5.59C268.79,533.67,268.9,527.54,268.9,521.41Z" transform="translate(-3.15 -3.21)"/><path class="f8b8d29d-0436-4441-a33a-6bdfe1b955c9" d="M327.74,537.68v-1.56c0-9.82,0-19.63,0-29.44a5.67,5.67,0,0,1,1-3c3.36-4.77,6-9.84,6.87-15.68a21.35,21.35,0,0,0-3.36-15.42c-.14-.22-.28-.45-.4-.68a.56.56,0,0,1,0-.26c3.06-.72,6.09-1.48,9.16-2.08.38-.07,1.12.62,1.39,1.12,5.07,9.37,10,18.85,15.18,28.15,4.25,7.55,10.7,11.93,19.62,11.87a20.63,20.63,0,0,0,11.2-3.36c6.7-4.34,8.75-10.84,7.28-18.25-4.86-24.47-10-48.88-15-73.3a23.18,23.18,0,0,0-2.29-6.45,23.53,23.53,0,0,0-4.54-5.89c-2.05-1.87-4.35-3.24-5.49-6.08-.88-2.21-3.29-3.08-5.67-3.39a25.52,25.52,0,0,0-3-.16c-7.84,0-15.68,0-23.52,0-1.95,0-3.89.49-5.84.68a1.68,1.68,0,0,1-1.3-.4c-5.48-7.14-10.71-8.2-18.87-3.66a12.9,12.9,0,0,0-8.51-5.33,12.71,12.71,0,0,0-9.77,2.62c-2.93-3.8-6.72-5.94-11.58-5.49s-8.17,3.07-10.42,7.47A12.87,12.87,0,0,0,259,388.43a13,13,0,0,0-7.81,7.74c-3-2.35-6.4-2.4-9.83-2.4-8,0-16,0-24,.05a17.42,17.42,0,0,0-5.44,1,7.14,7.14,0,0,0-4.22,4.74,3,3,0,0,1-1.19,1.54,18.73,18.73,0,0,0-9.46,12q-3,11.43-5.45,23-5.51,26-10.72,52.16c-2.34,11.72,4,20.4,15.87,22.16a22.24,22.24,0,0,0,22.9-11.32q8-14.2,15.82-28.53c.68-1.23,1.31-1.65,2.74-1.27a40.3,40.3,0,0,0,6,1c1.15.12,1.5.6,1.61,1.68A48.77,48.77,0,0,0,250,487.65a36.16,36.16,0,0,0,11.33,14.05,2.76,2.76,0,0,1,1,1.92c.06,11.52,0,23,0,34.56,0,.36-.06.72-.09,1.08-107.15-8.76-213.28-98-225.09-228C24,166.49,133.68,43.88,274.12,35.9c144.3-8.19,263.94,104.56,267.25,245.89C544.6,419.63,440.58,522.2,327.74,537.68Zm-157.3-91.46c-2.63.19-4.79.41-7,.48-3.34.09-4.94-1.28-5.4-4.58-.31-2.17-.46-4.35-.73-6.52-.3-2.34-1-2.92-3.31-3s-4.8-.06-7.19-.24c-2.89-.22-4.33-1.72-4.5-4.62-.11-1.71,0-3.42-.06-5.12,0-2.46-.65-3.12-3.07-3.39-1.48-.17-3-.27-4.44-.52-3.74-.62-5.09-2.42-4.74-6.23.15-1.69.38-3.39.49-5.09.15-2.27-.38-2.93-2.61-3.45-2-.47-4.09-.81-6.09-1.37-2.83-.8-4-2.61-3.57-5.55.24-1.74.63-3.46.94-5.19.37-2.15-.06-2.89-2.15-3.6-1.52-.51-3.07-.9-4.58-1.45-3.22-1.18-4.23-3-3.43-6.35.52-2.12,1.22-4.19,1.78-6.31s.17-2.83-1.73-3.7-4-1.68-6-2.62c-3.14-1.5-4-3.54-2.78-6.8.58-1.6,1.32-3.14,1.92-4.74.67-1.79.38-2.62-1.27-3.61-1.46-.87-3-1.61-4.46-2.5-2.92-1.77-3.55-3.81-2.1-6.9.84-1.78,1.85-3.49,2.72-5.26s.7-2.64-.93-3.83-3.46-2.31-5.11-3.57c-2.59-2-3-4-1.33-6.84.91-1.57,2-3,2.92-4.58s.77-2.49-.55-3.68-2.47-2-3.66-3.1c-2.88-2.6-3.08-4.65-.72-7.78,1.16-1.53,2.43-3,3.62-4.48,1.7-2.15,1.65-3-.22-5-1.51-1.58-3.09-3.1-4.53-4.74-2.13-2.46-2.07-4.56.1-7,1-1.14,2.17-2.2,3.24-3.31,1.87-1.94,1.92-2.73.29-4.81-.83-1.05-1.69-2.07-2.5-3.12-2.42-3.16-2.16-5.42.91-8,1.22-1,2.47-2,3.7-3.06,1.93-1.64,2.06-2.47.7-4.65-1-1.54-2-3-3-4.57-1.82-3-1.41-5.09,1.4-7.19,1.32-1,2.74-1.85,4.08-2.81,1.79-1.28,2-2.09,1-4.07-.66-1.34-1.42-2.63-2.07-4-1.66-3.37-1-5.49,2.17-7.38,1.66-1,3.38-1.83,5-2.77,2.39-1.34,2.63-2,1.67-4.52-.68-1.79-1.46-3.54-2.13-5.34-1.34-3.61-.49-5.64,3-7.22,1.45-.65,3-1.21,4.41-1.88,1.75-.81,2.14-1.58,1.68-3.44s-1-3.38-1.41-5.09c-.74-3.14.25-5,3.28-6.15,1.75-.65,3.56-1.12,5.33-1.7,2.44-.8,2.85-1.48,2.42-4-.31-1.84-.73-3.66-1-5.51-.47-3.3.68-5,3.91-5.9,1.75-.47,3.54-.78,5.31-1.16a2.43,2.43,0,0,0,2.14-2.87c-.14-1.75-.34-3.5-.4-5.26-.11-3.54,1.24-5.13,4.72-5.6,2.06-.29,4.14-.44,6.2-.69,2.52-.3,3.11-1,3.2-3.47.08-2.34.05-4.69.23-7,.21-2.9,1.71-4.34,4.6-4.52,1.59-.11,3.2,0,4.8-.06,2.86,0,3.47-.57,3.76-3.36.15-1.43.27-2.87.51-4.29.61-3.56,2.38-4.91,6-4.62,1.76.14,3.5.39,5.26.51,2.28.15,2.95-.37,3.47-2.59.47-2,.81-4.09,1.37-6.08.79-2.85,2.6-4,5.53-3.6,1.79.24,3.56.66,5.35,1,2,.34,2.74-.11,3.4-2,.58-1.66,1-3.38,1.63-5,1.14-3,2.94-3.93,6-3.19,2,.46,3.9,1.1,5.85,1.65,2.75.78,3.47.46,4.6-2.13.75-1.71,1.43-3.45,2.21-5.15,1.61-3.49,3.64-4.32,7.23-3,1.49.57,2.94,1.24,4.44,1.8,1.8.68,2.63.39,3.62-1.24.71-1.19,1.32-2.44,2-3.65,2.2-3.94,4.28-4.58,8.26-2.53,1.38.71,2.72,1.47,4.1,2.17,2.17,1.09,2.93.92,4.32-1,1.12-1.56,2.13-3.2,3.28-4.73,2.05-2.74,4.13-3.14,7.07-1.41,1.33.79,2.59,1.7,3.89,2.53,2.2,1.39,3.08,1.23,4.77-.8,1-1.14,1.88-2.32,2.9-3.41,2.26-2.44,4.36-2.65,7.05-.67,1.8,1.32,3.49,2.81,5.26,4.17s2.69,1.31,4.34-.26c1.51-1.42,2.94-2.94,4.49-4.33,3-2.69,5-2.65,7.93.08,1.16,1.1,2.28,2.24,3.43,3.36a2.51,2.51,0,0,0,3.71.16c1.25-1,2.48-2,3.75-3,3-2.29,5.3-2,7.78.86,1.22,1.42,2.38,2.88,3.59,4.31a2.54,2.54,0,0,0,3.68.57c1.7-1.1,3.38-2.23,5.11-3.28,3-1.82,5.09-1.43,7.2,1.38,1.06,1.4,2,2.92,3,4.34s1.91,1.68,3.58.88c1.44-.68,2.83-1.49,4.26-2.2,3.43-1.68,5.55-1,7.48,2.29,1,1.8,2,3.67,3,5.46s1.79,2,3.71,1.32c2.15-.79,4.24-1.74,6.41-2.48,3.05-1,5-.2,6.41,2.71.61,1.24,1.1,2.54,1.64,3.82,1.29,3.07,1.83,3.34,5,2.45,1.28-.36,2.55-.78,3.85-1.09,3.33-.8,5.2.17,6.38,3.37.66,1.79,1.14,3.66,1.76,5.48.71,2.11,1.35,2.51,3.58,2.18,2-.3,4-.77,6-1.05,3.12-.44,4.86.7,5.71,3.75.49,1.75.77,3.54,1.19,5.31s1.1,2.4,3,2.3c1.76-.08,3.51-.33,5.26-.38,3.42-.09,5,1.27,5.47,4.69.31,2.22.45,4.46.77,6.68.29,2.07,1,2.64,3,2.73,2.24.09,4.49.06,6.72.19,3.74.21,5.11,1.65,5.24,5.43,0,1.6,0,3.2,0,4.8.08,2,.7,2.65,2.68,2.92,1.58.21,3.18.29,4.76.55,3.76.61,5.13,2.4,4.79,6.19-.15,1.65-.37,3.29-.49,4.93-.19,2.47.33,3.14,2.72,3.69,1.92.43,3.87.77,5.77,1.29,3,.83,4.2,2.62,3.76,5.71-.26,1.8-.68,3.57-1,5.35s.13,2.58,1.86,3.2,3.47,1.05,5.16,1.69c3,1.13,3.95,2.94,3.22,6-.49,2.07-1.17,4.1-1.73,6.15-.67,2.46-.32,3.2,2,4.25,1.65.73,3.34,1.4,5,2.14,3.89,1.74,4.72,3.81,3.13,7.8-.49,1.24-1.05,2.45-1.53,3.69-.86,2.21-.58,3,1.51,4.18,1.21.68,2.45,1.3,3.65,2,3.48,2,4.1,4.11,2.29,7.72-.74,1.48-1.57,2.92-2.31,4.39-1.12,2.21-.93,3,1.12,4.43,1.48,1.05,3,2,4.48,3.08,2.9,2.13,3.32,4.24,1.48,7.31-.85,1.41-1.83,2.75-2.69,4.16-1.06,1.74-.9,2.7.65,4.05,1.25,1.08,2.57,2.08,3.78,3.2,2.45,2.26,2.67,4.37.7,7.05-1.33,1.81-2.81,3.49-4.17,5.27s-1.33,2.69.22,4.34,3.32,3.33,4.85,5.1c2.06,2.38,2,4.47-.14,6.83-1.25,1.39-2.6,2.68-3.89,4a2.4,2.4,0,0,0-.17,3.46c1,1.3,2.08,2.57,3.07,3.89,2.3,3,2.06,5.3-.83,7.78-1.37,1.18-2.81,2.29-4.17,3.48s-1.66,2.22-.64,3.91,2,3.13,3,4.71c2.08,3.33,1.66,5.46-1.57,7.77-1.34,1-2.74,1.85-4.09,2.8a2.38,2.38,0,0,0-.86,3.34c.77,1.52,1.6,3,2.34,4.55,1.6,3.29,1,5.39-2.19,7.25-1.83,1.08-3.75,2-5.59,3.1s-2.05,1.81-1.35,3.71c.79,2.15,1.74,4.24,2.49,6.4,1.06,3.06.21,5-2.69,6.43-1.58.76-3.24,1.36-4.84,2.09-1.83.84-2.2,1.61-1.7,3.57.37,1.5.88,3,1.26,4.47,1,3.74,0,5.61-3.71,6.88-1.71.59-3.47,1.05-5.18,1.64-2,.67-2.37,1.3-2.07,3.35s.79,4.19,1.08,6.3c.41,2.93-.74,4.69-3.6,5.52-1.58.46-3.22.73-4.83,1.09-2.72.6-3.09,1.07-2.92,3.8.1,1.54.31,3.08.35,4.62.09,3.43-1.26,5-4.67,5.49-2.17.3-4.35.44-6.52.73s-2.83,1-2.91,3.22-.06,4.7-.22,7c-.22,3.16-1.71,4.59-4.91,4.74-1.75.09-3.52,0-5.27.06-2,.08-2.66.69-2.93,2.67-.18,1.32-.27,2.65-.42,4-.53,4.58-2.38,6-7,5.53-1.77-.19-3.55-.32-5.7-.51l25.21,41.55C505.25,435.7,552.5,336.29,526.83,230.1,500.77,122.26,402.55,41.8,286.09,42.81c-113.67,1-210.47,80.06-236.34,187.57C24.06,337.14,72,436.25,145.32,487.63Z" transform="translate(-3.15 -3.21)"/><path class="f8b8d29d-0436-4441-a33a-6bdfe1b955c9" d="M269.82,425c4.87,9.88,18.18,9.88,23.16-.05a12.84,12.84,0,0,0,10.4,1.38,12.58,12.58,0,0,0,7.75-6.75,36.73,36.73,0,0,0,5.45,1.57,12.37,12.37,0,0,0,14-12c.11-2.31.42-4.61.7-6.91a2,2,0,0,1,2-1.76,21.17,21.17,0,0,1,2.39-.17q12.15,0,24.31,0c2.89,0,2.79.12,3.66,2.81a5.2,5.2,0,0,0,2.42,2.93c4.58,2,7,5.63,8,10.29,2.05,9,4.14,18.08,6,27.16,3.13,15.29,6.12,30.62,9.1,45.94a18.5,18.5,0,0,1,.25,4.93,9.25,9.25,0,0,1-5.53,8c-7.85,3.85-16.36,1.07-20.61-6.81-5.37-9.95-10.68-19.92-16-29.88-.28-.52-.54-1-.83-1.55-1.2-2.06-2.82-2.76-5-1.84-6.14,2.59-12.62,3.07-19.14,3.05-2.77,0-5.55-.72-8.58-1.16l1-1.61c3.39-5.23,2-11.14-3.29-14.36-2.89-1.75-6.12-2.38-9.41-2.91-6.78-1.1-13.54-2.35-20.33-3.41a12.6,12.6,0,0,0-4.58.16c-5.82,1.31-11.6,2.77-17.39,4.21a18.92,18.92,0,0,0-14.47,16.4c0,.32-.12.62-.25,1.25-2.47-.49-4.93-.87-7.34-1.47-3.88-1-4.93-.58-6.87,2.91-5.59,10.06-11.08,20.18-16.8,30.18-3.33,5.81-8.36,9-15.3,8.47a17.38,17.38,0,0,1-3.75-.78c-6.33-2-9.21-6.5-7.86-13,5-24.26,10.22-48.49,15.39-72.72a24.37,24.37,0,0,1,1.62-4.84,11.39,11.39,0,0,1,6.52-6.25c1.94-.73,3.16-1.9,3.16-4.11a1.78,1.78,0,0,1,1.77-1.89,12.84,12.84,0,0,1,1.75-.1q12.72,0,25.44,0a6.34,6.34,0,0,1,2.36.22,7.89,7.89,0,0,1,2.17,1.62c.64.61,1,1.67,1.77,1.95,1.43.56,1.51,1.51,1.48,2.76-.06,2.45,0,4.91,0,7.36a12.44,12.44,0,0,0,18.25,11.18C269.15,425.25,269.49,425.12,269.82,425Zm-42.68,33.4a24.62,24.62,0,1,0-24.57-24.66A24.58,24.58,0,0,0,227.14,458.37Zm136.11-7.81a10.06,10.06,0,1,0-9.95-10.16A10.05,10.05,0,0,0,363.25,450.56Zm-1.61-30.14a10.06,10.06,0,1,0-10.09,10A10.08,10.08,0,0,0,361.64,420.42ZM349.78,441.2a10.05,10.05,0,1,0-10.12,10A10,10,0,0,0,349.78,441.2Z" transform="translate(-3.15 -3.21)"/><path class="f8b8d29d-0436-4441-a33a-6bdfe1b955c9" d="M275.49,407.17c0-4,0-8,0-12s2.49-6.47,6-6.41,5.8,2.74,5.8,6.5c0,8,0,16,0,24,0,3.12-1.38,5.3-3.85,6.23a5.86,5.86,0,0,1-7.94-5.51c-.1-4.26,0-8.53,0-12.8Z" transform="translate(-3.15 -3.21)"/><path class="f8b8d29d-0436-4441-a33a-6bdfe1b955c9" d="M294,405.92c0-2.93,0-5.85,0-8.78a5.79,5.79,0,0,1,11.55-.36c.15,6.06.16,12.14,0,18.2a5.79,5.79,0,0,1-11.55-.44C294,411.67,294,408.8,294,405.92Z" transform="translate(-3.15 -3.21)"/><path class="f8b8d29d-0436-4441-a33a-6bdfe1b955c9" d="M268.83,407.36c0,2.4,0,4.79,0,7.19a5.66,5.66,0,0,1-5.5,5.7,5.59,5.59,0,0,1-6.07-5.28c-.16-5.16-.14-10.33,0-15.49a5.8,5.8,0,0,1,11.54.21c.09,2.56,0,5.11,0,7.67Z" transform="translate(-3.15 -3.21)"/><path class="f8b8d29d-0436-4441-a33a-6bdfe1b955c9" d="M312.33,404.54c0-1.54,0-3.08,0-4.62a5.71,5.71,0,0,1,5.15-5.56c3.09-.29,6.06,1.58,6.32,4.55a64.64,64.64,0,0,1,0,11.13c-.23,2.91-3.19,4.89-6.1,4.66a5.77,5.77,0,0,1-5.38-5.69C312.3,407.52,312.32,406,312.33,404.54Z" transform="translate(-3.15 -3.21)"/><path class="f8b8d29d-0436-4441-a33a-6bdfe1b955c9" d="M245.18,433.88a18,18,0,1,1-36.08-.21c.06-10.13,8.18-18,18.55-17.92C237.26,415.79,245.22,424,245.18,433.88Zm-14.83,3.17h2.11c1.81,0,3.63.05,5.42-.15a3,3,0,0,0,2.77-3.19,3.11,3.11,0,0,0-2.73-3.07,15.34,15.34,0,0,0-2.54-.15c-1.63,0-3.26,0-5,0v-1.82c0-1.38,0-2.77,0-4.16,0-2.81-1.23-4.38-3.34-4.36s-3.22,1.58-3.25,4.29c0,.85,0,1.7,0,2.56v3.49H221.8c-1.7,0-3.41-.08-5.11,0a3.27,3.27,0,0,0-3.32,3.37,3.3,3.3,0,0,0,3.32,3.22c.63,0,1.28,0,1.92,0h5.1v6.37c0,2.49,1.26,4,3.33,4s3.32-1.55,3.31-4Z" transform="translate(-3.15 -3.21)"/><path class="f8b8d29d-0436-4441-a33a-6bdfe1b955c9" d="M363.39,444a3.46,3.46,0,0,1-.14-6.92,3.46,3.46,0,1,1,.14,6.92Z" transform="translate(-3.15 -3.21)"/><path class="f8b8d29d-0436-4441-a33a-6bdfe1b955c9" d="M348.12,420.41a3.41,3.41,0,0,1,3.36-3.49,3.49,3.49,0,0,1,3.63,3.42,3.64,3.64,0,0,1-3.56,3.55A3.5,3.5,0,0,1,348.12,420.41Z" transform="translate(-3.15 -3.21)"/><path class="f8b8d29d-0436-4441-a33a-6bdfe1b955c9" d="M339.7,444.55a3.41,3.41,0,0,1-3.43-3.45,3.47,3.47,0,1,1,6.94.07A3.42,3.42,0,0,1,339.7,444.55Z" transform="translate(-3.15 -3.21)"/></g><g id="b89fe4f8-e26b-491d-a505-fd8b8fd6d129" data-name="Text objects (CHANGE THESE)"><path d="M145.08,462.12l0,.05a11.87,11.87,0,0,1-17.43-16.1l0,0a11.86,11.86,0,0,1,17.42,16.09Zm-13.62-12.65,0,0a6.77,6.77,0,0,0,.18,9.74,6.66,6.66,0,0,0,9.63-.54l.05,0a6.8,6.8,0,0,0-.18-9.75A6.68,6.68,0,0,0,131.46,449.47Z" transform="translate(-3.15 -3.21)"/><path d="M109.59,442.56l-6.33-8a8.82,8.82,0,0,1-2.25-6.5,7,7,0,0,1,2.81-4.67l.05,0a6.92,6.92,0,0,1,8.4-.54l2.87-9.23,3.56,4.5-2.64,8.19,2.4,3,5.6-4.43,3,3.85ZM112,428.07c-1.48-1.87-3.34-2.16-4.81-1l0,0c-1.65,1.31-1.59,3.13-.11,5l3,3.82,5-4Z" transform="translate(-3.15 -3.21)"/><path d="M99.52,410.27l-.06,0a11.44,11.44,0,0,1-15.83-4.42,12.24,12.24,0,0,1-1.7-9.13l4.78.83a8.14,8.14,0,0,0,.93,6.19c1.77,3.1,5.92,4,9.22,2.11l0,0c3.55-2,4.76-6,2.79-9.39a7.71,7.71,0,0,0-3.46-3.34l-2.77,1.58L95.93,399l-3.68,2.11-4.82-8.42,8.42-4.81a14.44,14.44,0,0,1,7.81,6.52C107.11,400.42,105.25,407,99.52,410.27Z" transform="translate(-3.15 -3.21)"/><path d="M69.51,375.78l-1.62-4.23,17.6-16.95,1.83,4.8-3.95,3.69,3.37,8.81,5.4.13,1.79,4.67Zm10.43-9.51-5.7,5.35,7.82.19Z" transform="translate(-3.15 -3.21)"/><path d="M60.6,348.34l-.94-4.43,11.28-13.07-13.45,2.84-1-4.74,21.84-4.62.87,4.08L67.55,341.92,81.44,339l1,4.74Z" transform="translate(-3.15 -3.21)"/><path d="M54.54,312.72l-.43-4.89,22.25-1.93.43,4.89Z" transform="translate(-3.15 -3.21)"/><path d="M71.86,292.84l-14-12.66-.33,11.89-4.3-.12.5-18.2,3.73.1,13.95,12.67.33-12.28,4.31.12L75.59,293Z" transform="translate(-3.15 -3.21)"/><path d="M55.39,258.13l2.79-16.59,4.31.72-2,11.79,4.46.75,1.75-10.37,4.31.72-1.75,10.38,4.63.77,2-11.94,4.31.72-2.82,16.76Z" transform="translate(-3.15 -3.21)"/><path d="M67.2,209.35l2.09-5L86,205,73.78,193.58l2-4.89,17.28,17-1.67,4Z" transform="translate(-3.15 -3.21)"/><path d="M82.58,176,85,171.75l19.44,11L102,187Z" transform="translate(-3.15 -3.21)"/><path d="M93.5,157.83l5.16-7c4.17-5.65,10.92-6.69,16-3l.06,0c5,3.73,6.1,10.53,1.94,16.17l-5.17,7Zm6.48-1.32,10.83,8,2.25-3.06a6.36,6.36,0,0,0-1.37-9.37l0,0a6.41,6.41,0,0,0-9.41,1.42Z" transform="translate(-3.15 -3.21)"/><path d="M116,129.62l11.84-12,3.11,3.08-8.41,8.49,3.22,3.19,7.4-7.48,3.11,3.08-7.4,7.48,3.33,3.3,8.52-8.61,3.11,3.07-12,12.08Z" transform="translate(-3.15 -3.21)"/><path d="M145.51,116.8l0,0a11.56,11.56,0,0,1,2.64-16.37,11.43,11.43,0,0,1,16.34,2.14l0,0a11.87,11.87,0,0,1-19,14.23Zm14.9-11.11,0,0a6.78,6.78,0,0,0-9.61-1.59,6.68,6.68,0,0,0-1.21,9.58l0,.05a6.78,6.78,0,0,0,9.61,1.59A6.68,6.68,0,0,0,160.41,105.69Z" transform="translate(-3.15 -3.21)"/><path d="M192.11,87l0-.06a11.45,11.45,0,0,1,6.31-15.17,12.25,12.25,0,0,1,9.27-.58l-1.4,4.64A8.21,8.21,0,0,0,200,76a6.71,6.71,0,0,0-3.21,8.89l0,.06c1.59,3.77,5.33,5.44,9,3.91a7.86,7.86,0,0,0,3.74-3l-1.24-2.94-4.55,1.91L202.1,80.9,211,77.15l3.76,8.94a14.49,14.49,0,0,1-7.42,7C201,95.73,194.67,93.09,192.11,87Z" transform="translate(-3.15 -3.21)"/><path d="M230,61.41l4.4-1.09,14.68,19.55-5,1.23-3.18-4.38L231.75,79,231,84.34l-4.86,1.2Zm8.17,11.52-4.62-6.32-1.14,7.74Z" transform="translate(-3.15 -3.21)"/><path d="M258.41,55.86l5.28-.43,6.61,8.94,5.09-9.89,5.27-.43,1.81,22.26-4.87.39-1.17-14.53-5.49,10h-.13l-7-8.91L265,77.73l-4.8.38Z" transform="translate(-3.15 -3.21)"/><path d="M297.25,54.19,314,55.35l-.3,4.36-11.93-.82-.31,4.52,10.5.72-.31,4.36-10.49-.72-.32,4.68,12.08.83-.3,4.36-17-1.17Z" transform="translate(-3.15 -3.21)"/><path d="M348.43,61.8l4.74,1.29-5.88,21.54-4.73-1.29Z" transform="translate(-3.15 -3.21)"/><path d="M368.79,67.92,373,69.64l4.46,16.69,5.21-12.72,4.48,1.84L378.66,96.1l-3.86-1.58-4.61-17.24L364.8,90.42l-4.48-1.84Z" transform="translate(-3.15 -3.21)"/><path d="M402,82.94l7.45,4.5c6,3.63,7.66,10.26,4.41,15.64l0,0c-3.25,5.38-9.92,7.05-15.92,3.42l-7.45-4.5Zm1.91,6.33-7,11.52,3.25,2a6.36,6.36,0,0,0,9.21-2.23l0,0a6.41,6.41,0,0,0-2.27-9.24Z" transform="translate(-3.15 -3.21)"/><path d="M423.82,112.31l8.18-9.79,3.76,3.15-8.09,9.69c-2.33,2.8-2.14,5.4.16,7.33s4.86,1.68,7.13-1l8.2-9.82,3.76,3.14-8.07,9.68c-4.34,5.19-9.38,5.3-14,1.46S419.6,117.36,423.82,112.31Z" transform="translate(-3.15 -3.21)"/><path d="M443.23,137.89l4.52-.17a10.26,10.26,0,0,0,2.46,6.76c1.34,1.49,2.75,1.86,3.72,1l0,0c.93-.84.89-1.83-.9-5.24-2.16-4.11-3.18-7.1.11-10.07l.05,0c3-2.71,7.17-2.1,10.23,1.29a12.93,12.93,0,0,1,3.45,8l-4.46.59a10.46,10.46,0,0,0-2.25-5.78c-1.27-1.4-2.57-1.55-3.37-.83l-.05,0c-1.09,1-.8,2,1.05,5.55,2.16,4.15,2.66,7.13-.23,9.74l-.05,0c-3.29,3-7.4,2.13-10.63-1.44A14.23,14.23,0,0,1,443.23,137.89Z" transform="translate(-3.15 -3.21)"/><path d="M477.51,156.63,473.65,151l3.73-2.57,10.5,15.22-3.73,2.57-3.86-5.59-14.65,10.11-2.79-4.05Z" transform="translate(-3.15 -3.21)"/><path d="M495.41,176.48,500,185.6a8.93,8.93,0,0,1,.89,6.83,7,7,0,0,1-3.71,4l-.06,0a6.93,6.93,0,0,1-8.33-1.19l-4.69,8.45-2.57-5.14,4.25-7.47L484,187.66l-6.39,3.2-2.2-4.4Zm-5.28,13.69c1.07,2.14,2.82,2.79,4.51,2l.06,0c1.88-.94,2.19-2.74,1.12-4.87l-2.18-4.37-5.74,2.87Z" transform="translate(-3.15 -3.21)"/><path d="M498.46,217l10.11-12.42,1.82,5.45-6.82,7.88,10.22,2.31,1.76,5.29-15.45-3.88-8.44,2.82-1.55-4.66Z" transform="translate(-3.15 -3.21)"/><path d="M522.55,257.42l.34,5.25-14.79,5.58,15.47,4,.27,4.2-14.83,6,15.38,3.64.33,5.12L501.79,285l-.27-4.26,14.26-6-14.91-4.09-.27-4.26Z" transform="translate(-3.15 -3.21)"/><path d="M512.83,303h.06a11.56,11.56,0,0,1,10.16,13.11,11.44,11.44,0,0,1-12.73,10.48h-.06A11.86,11.86,0,0,1,512.83,303Zm-2.07,18.47h.07a6.78,6.78,0,0,0,7.72-5.94,6.68,6.68,0,0,0-6.17-7.43h-.06a6.78,6.78,0,0,0-7.73,5.94A6.67,6.67,0,0,0,510.76,321.49Z" transform="translate(-3.15 -3.21)"/><path d="M518.18,343.21l-2.68,9.85a8.89,8.89,0,0,1-3.9,5.67,7,7,0,0,1-5.43.51l-.06,0a6.93,6.93,0,0,1-5.42-6.43L491.56,356l1.51-5.54,8.15-2.73,1-3.73-6.89-1.88,1.29-4.73Zm-13.06,6.68c-.63,2.31.24,4,2.05,4.47h.07c2,.56,3.46-.57,4.09-2.88l1.28-4.71-6.18-1.68Z" transform="translate(-3.15 -3.21)"/><path d="M508,375.87l-2,4.5-8.94-3.92,5.31,12.21-2.38,5.44L495,382l-15.59,3.54,2.37-5.4,11.48-2.52-1.42-3.44-6.25-2.74,2-4.5Z" transform="translate(-3.15 -3.21)"/><path d="M493.13,406.81l-8.87,14.3-3.71-2.3,6.3-10.16L483,406.26l-5.55,8.94-3.71-2.3,5.54-8.94-4-2.47-6.39,10.29-3.71-2.3L474.15,395Z" transform="translate(-3.15 -3.21)"/><path d="M475.11,433.77l-6.54,7.83a8.88,8.88,0,0,1-5.91,3.54,7,7,0,0,1-5.14-1.8l0,0a6.94,6.94,0,0,1-2.25-8.11l-9.61-.93,3.68-4.4,8.55.91,2.47-3-5.48-4.58,3.15-3.76Zm-14.66.63c-1.53,1.84-1.43,3.71,0,4.92l.05,0c1.61,1.35,3.39.92,4.92-.92l3.13-3.74-4.92-4.12Z" transform="translate(-3.15 -3.21)"/><path d="M440.67,444l.19,4.52a10.24,10.24,0,0,0-6.76,2.47c-1.49,1.35-1.85,2.75-1,3.72l0,0c.83.92,1.83.88,5.24-.92,4.1-2.16,7.08-3.19,10.06.1l0,0c2.73,3,2.12,7.17-1.26,10.24a12.92,12.92,0,0,1-8.05,3.46l-.6-4.46a10.46,10.46,0,0,0,5.78-2.26c1.4-1.27,1.55-2.57.82-3.37l0-.05c-1-1.09-2-.8-5.54,1.06-4.15,2.17-7.13,2.67-9.74-.21l-.05,0c-3-3.28-2.14-7.4,1.43-10.63A14.19,14.19,0,0,1,440.67,444Z" transform="translate(-3.15 -3.21)"/><path class="aa380250-153d-4345-a608-8db5bd3c0a5b" d="M205.58,192.72v-.13a23.35,23.35,0,0,1,23.86-23.53c8.19,0,13.13,2.21,17.87,6.24l-6.3,7.6c-3.51-2.92-6.63-4.61-11.9-4.61-7.28,0-13.07,6.43-13.07,14.17v.13c0,8.32,5.73,14.43,13.79,14.43a16,16,0,0,0,9.42-2.73v-6.5H229.18v-8.65h19.76V208.9a29.52,29.52,0,0,1-19.44,7.22C215.33,216.12,205.58,206.17,205.58,192.72Z" transform="translate(-3.15 -3.21)"/><path class="aa380250-153d-4345-a608-8db5bd3c0a5b" d="M253.75,169.84h10.72l9.43,30.81,10.2-30.94h8.58l10.21,30.94,9.42-30.81h10.47l-15.54,45.83h-8.71l-10.27-29.78L278,215.67h-8.71Z" transform="translate(-3.15 -3.21)"/><path class="aa380250-153d-4345-a608-8db5bd3c0a5b" d="M329.47,195.84v-26h10v25.74c0,7.41,3.71,11.24,9.82,11.24s9.81-3.7,9.81-10.92V169.84h10v25.67c0,13.78-7.73,20.54-19.95,20.54S329.47,209.23,329.47,195.84Z" transform="translate(-3.15 -3.21)"/><path class="aa380250-153d-4345-a608-8db5bd3c0a5b" d="M139.25,278.71l5.91-7.09c4.1,3.38,8.39,5.53,13.59,5.53,4.09,0,6.56-1.63,6.56-4.29v-.13c0-2.54-1.56-3.84-9.16-5.79-9.17-2.34-15.08-4.87-15.08-13.91v-.13c0-8.25,6.63-13.71,15.92-13.71a26.35,26.35,0,0,1,16.9,5.78l-5.2,7.54c-4-2.79-8-4.48-11.83-4.48s-5.85,1.75-5.85,4v.13c0,3,2,4,9.82,6,9.23,2.41,14.43,5.72,14.43,13.65v.13c0,9-6.89,14.11-16.71,14.11A29,29,0,0,1,139.25,278.71Z" transform="translate(-3.15 -3.21)"/><path class="aa380250-153d-4345-a608-8db5bd3c0a5b" d="M178.83,239.84h10.73L199,270.65l10.21-30.94h8.58L228,270.65l9.43-30.81h10.47l-15.54,45.83h-8.71l-10.27-29.78-10.27,29.78h-8.71Z" transform="translate(-3.15 -3.21)"/><path class="aa380250-153d-4345-a608-8db5bd3c0a5b" d="M255.27,239.84h34.32v8.9H265.22V258h21.45v8.91H265.22v9.55h24.7v8.91H255.27Z" transform="translate(-3.15 -3.21)"/><path class="aa380250-153d-4345-a608-8db5bd3c0a5b" d="M298.82,239.84h17.75c14.3,0,24.18,9.81,24.18,22.62v.13c0,12.8-9.88,22.75-24.18,22.75H298.82Zm10,9V276.3h7.74c8.19,0,13.71-5.52,13.71-13.58v-.13c0-8.06-5.52-13.72-13.71-13.72Z" transform="translate(-3.15 -3.21)"/><path class="aa380250-153d-4345-a608-8db5bd3c0a5b" d="M349.65,239.84H384v8.9H359.6V258h21.45v8.91H359.6v9.55h24.7v8.91H349.65Z" transform="translate(-3.15 -3.21)"/><path class="aa380250-153d-4345-a608-8db5bd3c0a5b" d="M393.2,239.84h9.23l21.32,28v-28h9.88v45.5h-8.51l-22-28.93v28.93H393.2Z" transform="translate(-3.15 -3.21)"/><path class="aa380250-153d-4345-a608-8db5bd3c0a5b" d="M129,332.72v-.13c0-12.94,9.75-23.53,23.73-23.53,8.58,0,13.72,2.86,17.94,7l-6.37,7.34c-3.51-3.18-7.09-5.13-11.63-5.13-7.68,0-13.2,6.37-13.2,14.17v.13c0,7.8,5.39,14.3,13.2,14.3,5.2,0,8.38-2.08,12-5.33L171,348c-4.68,5-9.88,8.13-18.66,8.13A23,23,0,0,1,129,332.72Z" transform="translate(-3.15 -3.21)"/><path class="aa380250-153d-4345-a608-8db5bd3c0a5b" d="M179,309.84h10v18H207.5v-18h10v45.5h-10V337.07H189v18.27H179Z" transform="translate(-3.15 -3.21)"/><path class="aa380250-153d-4345-a608-8db5bd3c0a5b" d="M244,309.51h9.23l19.5,45.83H262.29l-4.16-10.21H238.89l-4.16,10.21h-10.2Zm10.53,26.78-6.05-14.75-6,14.75Z" transform="translate(-3.15 -3.21)"/><path class="aa380250-153d-4345-a608-8db5bd3c0a5b" d="M279.78,309.84h18.59c10.85,0,17.42,6.43,17.42,15.73v.13c0,10.53-8.19,16-18.4,16h-7.6v13.65h-10Zm17.94,22.94c5,0,7.93-3,7.93-6.89v-.13c0-4.48-3.12-6.89-8.13-6.89h-7.73v13.91Z" transform="translate(-3.15 -3.21)"/><path class="aa380250-153d-4345-a608-8db5bd3c0a5b" d="M333.79,319.07H320v-9.23h37.7v9.23H343.8v36.27h-10Z" transform="translate(-3.15 -3.21)"/><path class="aa380250-153d-4345-a608-8db5bd3c0a5b" d="M365.32,309.84h34.32v8.9H375.26V328h21.45v8.91H375.26v9.55H400v8.91H365.32Z" transform="translate(-3.15 -3.21)"/><path class="aa380250-153d-4345-a608-8db5bd3c0a5b" d="M408.87,309.84h20.8c5.78,0,10.27,1.62,13.26,4.61a14.31,14.31,0,0,1,3.9,10.4V325c0,7.35-4,12-9.75,14.11l11.11,16.25h-11.7l-9.75-14.56h-7.86v14.56h-10ZM429,331.94c4.87,0,7.67-2.6,7.67-6.44v-.13c0-4.29-3-6.5-7.87-6.5h-9.94v13.07Z" transform="translate(-3.15 -3.21)"/></g><g id="be88e1f7-2bb4-4faa-a34a-28bf0ee3d2e2" data-name="Dots between outer text (MOVE THESE)"><path class="f8b8d29d-0436-4441-a33a-6bdfe1b955c9" d="M77.5,226.94A4.47,4.47,0,0,1,73,231.37a4.58,4.58,0,0,1-4.44-4.53,4.48,4.48,0,0,1,4.54-4.36A4.31,4.31,0,0,1,77.5,226.94Z" transform="translate(-3.15 -3.21)"/><path class="f8b8d29d-0436-4441-a33a-6bdfe1b955c9" d="M512,244.18a4.4,4.4,0,0,1-4.55,4.36,4.55,4.55,0,0,1-4.36-4.46,4.49,4.49,0,0,1,4.54-4.43A4.38,4.38,0,0,1,512,244.18Z" transform="translate(-3.15 -3.21)"/><path class="f8b8d29d-0436-4441-a33a-6bdfe1b955c9" d="M329.67,65.11a4.43,4.43,0,0,1,4.5,4.43,4.43,4.43,0,1,1-4.5-4.43Z" transform="translate(-3.15 -3.21)"/><path class="f8b8d29d-0436-4441-a33a-6bdfe1b955c9" d="M182.55,92.93a4.42,4.42,0,1,1-8.83,0,4.42,4.42,0,1,1,8.83,0Z" transform="translate(-3.15 -3.21)"/></g></svg>